<svg id="Capa_1" enable-background="new 0 0 504.5 504.5" height="512" viewBox="0 0 504.5 504.5" width="512" xmlns="http://www.w3.org/2000/svg"><g><path d="m173.5 243.5c-12.406 0-22.5-10.093-22.5-22.5v-41h15v41c0 4.136 3.364 7.5 7.5 7.5s7.5-3.364 7.5-7.5v-41l15 20v21c0 12.407-10.094 22.5-22.5 22.5z" fill="#ff4128"/><path d="m421 147.5h-15c-4.143 0-7.5 3.358-7.5 7.5s3.357 7.5 7.5 7.5h15c4.136 0 7.5 3.364 7.5 7.5s-3.364 7.5-7.5 7.5h-135v15h135c12.406 0 22.5-10.093 22.5-22.5s-10.094-22.5-22.5-22.5z" fill="#ffa754"/><path d="m248.5 285v196.592l-24.87 8.29c-3.93 1.31-6.053 5.557-4.744 9.487 1.31 3.93 5.559 6.054 9.487 4.744l29.998-10c3.063-1.021 5.128-3.887 5.128-7.115v-201.998z" fill="#a45e43"/><path d="m323.5 285v196.592l24.87 8.29c3.93 1.31 6.053 5.557 4.744 9.487-1.31 3.93-5.559 6.054-9.487 4.744l-29.998-10c-3.063-1.021-5.128-3.887-5.128-7.115v-201.998z" fill="#85453d"/><path d="m241 255v120c0 8.28 6.72 15 15 15s15-6.72 15-15v-47.571c4.693 1.659 9.739 2.571 15 2.571s10.307-.912 15-2.571l20-21.215v-51.214z" fill="#ff8646"/><path d="m301 255v120c0 8.284 6.716 15 15 15s15-6.716 15-15v-120z" fill="#ff6337"/><path d="m196 170-30-10-30 25 30 25 30-10z" fill="#ffe2a8"/><path d="m61 125v120l30-10 30-50-30-50z" fill="#ff4128"/><path d="m166 160-75-25v100l75-25z" fill="#fff0d3"/><path d="m326 165h-30l20 130h30v-110c0-11.05-8.95-20-20-20z" fill="#ffa754"/><path d="m316 185v110h-90v-110c0-11.05 8.95-20 20-20h50c11.05 0 20 8.95 20 20z" fill="#ffcb63"/><path d="m320.527 30.699c2.935-5.651 2.035-12.776-2.707-17.518s-11.868-5.642-17.519-2.707c-1.919-6.072-7.595-10.474-14.301-10.474s-12.381 4.402-14.301 10.473c-5.651-2.935-12.777-2.035-17.519 2.707s-5.642 11.868-2.707 17.518c-6.071 1.921-10.473 7.596-10.473 14.302v45h90s0-36.716 0-45c0-6.706-4.402-12.381-10.473-14.301z" fill="#40211d"/><path d="m286 45v90c24.853 0 45-20.147 45-45s-20.147-45-45-45z" fill="#85453d"/><path d="m301 90c0-24.853-6.716-45-15-45-24.853 0-45 20.147-45 45s20.147 45 45 45c8.284 0 15-20.147 15-45z" fill="#a45e43"/><g fill="#ff4128"><circle cx="406" cy="110" r="15"/><path d="m391 15v40c0 8.284 6.716 15 15 15s15-6.716 15-15v-40c0-8.284-6.716-15-15-15s-15 6.716-15 15z"/></g></g></svg>