<svg xmlns="http://www.w3.org/2000/svg" viewBox="0 0 512 512"><path d="M432.551 176.556c0 39.795-27.916 105.826-82.959 196.273-40.255 66.141-81.079 122.073-81.489 122.623L255.995 512l-12.098-16.548c-.41-.55-41.234-56.482-81.489-122.623-55.042-90.448-82.959-156.479-82.959-196.273C79.449 79.199 158.648 0 255.995 0c97.357 0 176.556 79.199 176.556 176.556z" fill="#088A29"/><path d="M432.551 176.556c0 39.795-27.916 105.826-82.959 196.273-40.255 66.141-81.079 122.073-81.489 122.623L255.995 512V0c97.357 0 176.556 79.199 176.556 176.556z" fill="#0B610B"/><path d="M273.863 88.708h-65.041v191.664h29.996v-77.249h35.045c31.536 0 57.202-25.666 57.202-57.202 0-31.547-25.667-57.213-57.202-57.213zm0 84.418h-35.045v-54.423h35.045c14.998 0 27.206 12.208 27.206 27.216 0 14.999-12.208 27.207-27.206 27.207z" fill="#fff"/><path d="M331.065 145.92c0 31.536-25.667 57.202-57.202 57.202h-17.868v-29.996h17.868c14.998 0 27.206-12.208 27.206-27.206 0-15.008-12.208-27.216-27.206-27.216h-17.868V88.708h17.868c31.535 0 57.202 25.666 57.202 57.212z" fill="#e1e1e3"/></svg>