<svg xmlns="http://www.w3.org/2000/svg" viewBox="0 0 512 512"><path d="M506.72 244.098l-160-144c-4.704-4.224-11.424-5.28-17.216-2.72S320 105.698 320 112.002v80H64c-35.36 0-64 28.64-64 64v112c0-26.496 21.504-48 48-48h272v80c0 6.304 3.712 12.032 9.504 14.624 2.08.896 4.288 1.376 6.496 1.376 3.872 0 7.712-1.408 10.72-4.096l160-144c3.328-3.04 5.28-7.36 5.28-11.904s-1.952-8.864-5.28-11.904z" fill="#ffc107"/><path d="M160 416.002H48c-26.496 0-48-21.504-48-48s21.504-48 48-48h112v96z" fill="#ffa000"/></svg>