<svg xmlns="http://www.w3.org/2000/svg" viewBox="0 0 512.002 512.002"><path d="M296.624 296.645l69.687-65.537V68.676c0-11-9-20-20-20H73.688c-11 0-20 9-20 20l.001 81.217-.001 81.216 69.688 65.537 72.056 67.765c8.013 7.536 21.138 7.525 29.165-.025l72.027-67.741z" fill="#e1e6e9"/><g fill="#ff9750"><path d="M160.546 48.676h99.158l-35.108-33.018c-3.852-3.622-8.883-5.516-13.958-5.67h-1.351c-5.049.153-10.042 2.031-13.856 5.644l-34.885 33.044zM53.688 231.108v-81.215L10 190.021zM366.311 148.935v82.173L410 190.021z"/></g><path d="M366.311 231.108l-69.687 65.537 34.65 34.65c18.097-18.107 43.104-29.306 70.727-29.306 2.692 0 5.36.107 7.999.318V190.021l-43.689 41.087z" fill="#ffd278"/><path d="M331.274 331.296l-34.65-34.65-72.028 67.739c-8.027 7.55-21.152 7.561-29.165.025l-72.056-67.765L10 410.021c0 11 8.999 20 20 20h275.983a100.016 100.016 0 01-3.981-28.031c0-27.606 11.186-52.599 29.272-70.694z" fill="#ff9750"/><path fill="#ffd278" d="M10 410.021l113.375-113.376-69.687-65.537L10 190.021z"/><path d="M302.002 401.99c0 9.732 1.395 19.136 3.988 28.031h-.007c12.12 41.584 50.521 71.968 96.018 71.968 55.228 0 100-44.771 100-99.999 0-52.536-40.513-95.61-92.001-99.685a101.312 101.312 0 00-7.999-.315c-27.622 0-52.63 11.199-70.727 29.306-18.086 18.095-29.272 43.088-29.272 70.694z" fill="#f46151"/><path d="M379.705 379.59v44.8c0 12.263 10.033 22.296 22.297 22.296 12.262 0 22.295-10.033 22.295-22.296v-44.8c0-12.263-10.033-22.296-22.296-22.296s-22.296 10.033-22.296 22.296z" fill="#ffd278"/><path d="M101.561 149.68h115.407c5.523 0 10-4.478 10-10s-4.477-10-10-10H101.561c-5.523 0-10 4.478-10 10s4.477 10 10 10zM101.561 189.68h145.841c5.523 0 10-4.478 10-10s-4.477-10-10-10H101.561c-5.523 0-10 4.478-10 10s4.477 10 10 10zM172.557 209.68h-.475c-5.523 0-10 4.478-10 10s4.477 10 10 10h.475c5.523 0 10-4.478 10-10 0-5.523-4.477-10-10-10zM101.561 229.68h41.438c5.523 0 10-4.478 10-10s-4.477-10-10-10h-41.438c-5.523 0-10 4.478-10 10s4.477 10 10 10zM277.001 99.681h41.439c5.523 0 10-4.478 10-10s-4.477-10-10-10h-41.439c-5.523 0-10 4.478-10 10s4.477 10 10 10zM247.441 99.681h.475c5.523 0 10-4.478 10-10s-4.477-10-10-10h-.475c-5.523 0-10 4.478-10 10s4.478 10 10 10z"/><path d="M420 293.476v-103.45c0-.037-.008-.072-.008-.109a10.09 10.09 0 00-.095-1.287c-.012-.082-.029-.161-.043-.242a9.99 9.99 0 00-.247-1.101c-.022-.077-.04-.155-.064-.232a10.029 10.029 0 00-.465-1.213c-.027-.059-.058-.113-.086-.171a9.8 9.8 0 00-.558-.999c-.046-.071-.089-.145-.136-.215a9.967 9.967 0 00-.787-1.028c-.042-.049-.089-.091-.132-.138-.171-.186-.341-.374-.528-.55l-40.54-38.125V68.681c0-16.542-13.458-30-30-30h-82.642L231.446 8.378c-11.868-11.16-31.11-11.162-42.893 0l-31.992 30.303H73.688c-16.542 0-30 13.458-30 30v76.824L3.235 182.661a10.056 10.056 0 00-1.664 2.001c-.222.348-.425.705-.6 1.072l-.034.066a9.975 9.975 0 00-.467 1.22c-.028.089-.052.179-.078.269-.107.379-.196.762-.258 1.148-.008.051-.02.099-.028.149-.062.431-.09.863-.096 1.298 0 .049-.01.094-.01.142v219.995l.001.016c.006 16.537 13.461 29.989 30 29.989h268.782c15.513 41.968 55.928 71.968 103.22 71.968 60.654 0 109.999-49.346 109.999-109.999-.001-54.525-39.88-99.904-92.002-108.519zm-21.757-1.41c-.494.017-.988.033-1.482.057-.445.02-.888.048-1.331.074-.483.028-.966.057-1.447.092-.452.032-.902.071-1.353.109-.469.04-.938.079-1.405.125-.457.045-.913.095-1.368.146a90.142 90.142 0 00-2.747.338c-.451.061-.901.123-1.35.189-.461.068-.921.143-1.381.217-.44.071-.878.143-1.316.219-.466.081-.931.168-1.395.255-.427.08-.854.16-1.278.245-.47.094-.938.193-1.405.293-.417.09-.834.179-1.25.273-.47.105-.939.217-1.407.329-.408.099-.816.196-1.222.3-.471.118-.94.242-1.409.367-.399.105-.799.213-1.196.324-.472.131-.942.268-1.412.404-.389.115-.778.23-1.165.348a115.07 115.07 0 00-3.967 1.296 104.651 104.651 0 00-2.523.913c-.362.137-.725.273-1.085.414a100.733 100.733 0 00-2.468.992 116.165 116.165 0 00-2.438 1.05 110.373 110.373 0 00-11.721 6.085 106.263 106.263 0 00-3.565 2.225c-.296.192-.59.387-.884.582a103.184 103.184 0 00-3.458 2.394 118.182 118.182 0 00-2.116 1.563 122.424 122.424 0 00-4.066 3.233l-20.646-20.646L400 213.158v78.854c-.147.003-.293.01-.44.014-.44.01-.878.026-1.317.04zm-2.84-102.04l-19.093 17.956v-35.911l19.093 17.955zM202.308 22.897c4.155-3.934 11.225-3.912 15.437.05l16.729 15.733h-48.829l16.663-15.783zM73.688 58.681H346.31c5.514 0 10 4.486 10 10v158.11L217.745 357.105c-2.026 1.905-4.779 2.954-7.755 2.954h-.001c-2.962 0-5.699-1.04-7.707-2.93L63.688 226.789V68.681c0-5.514 4.485-10 10-10zM20 213.158l89.013 83.712L20 385.884V213.158zm23.688-5.178l-18.999-17.867 18.999-17.451v35.318zm249.79 212.046H30c-4.282 0-7.933-2.711-9.356-6.502L123.59 310.579l64.99 61.12c5.731 5.391 13.334 8.359 21.408 8.36h.002c8.088 0 15.708-2.978 21.457-8.386l64.963-61.095 21.083 21.084c-.218.261-.435.522-.65.785-.223.273-.443.549-.664.824-.327.407-.653.814-.974 1.227-.219.281-.434.565-.65.848-.315.412-.629.824-.939 1.242-.214.287-.424.579-.635.869-.304.418-.607.836-.905 1.259-.209.295-.413.594-.619.892-.293.424-.585.847-.872 1.275-.203.303-.402.608-.602.913-.281.429-.562.856-.837 1.288-.198.311-.391.625-.585.938-.27.434-.54.865-.803 1.303-.192.317-.378.639-.567.958-.258.438-.516.874-.768 1.315-.187.326-.368.656-.552.985-.245.439-.491.878-.73 1.321-.182.336-.357.676-.536 1.014-.233.441-.466.883-.693 1.328-.175.344-.344.691-.516 1.037-.221.445-.443.89-.658 1.338-.168.35-.329.703-.493 1.055-.21.451-.421.9-.625 1.354-.161.357-.315.718-.472 1.077-.197.452-.397.903-.588 1.359-.154.366-.302.736-.452 1.104-.185.454-.372.906-.551 1.363-.147.375-.288.754-.431 1.131-.172.455-.347.908-.514 1.365-.14.383-.272.77-.407 1.154-.161.457-.324.912-.478 1.372-.132.392-.256.786-.384 1.18-.148.457-.299.913-.441 1.372-.126.405-.243.814-.364 1.221-.134.451-.271.902-.4 1.357-.119.418-.229.84-.342 1.26-.121.448-.245.895-.361 1.346-.11.428-.21.858-.315 1.287-.109.449-.222.896-.325 1.346-.1.432-.19.866-.284 1.299-.099.453-.201.903-.293 1.357-.09.44-.17.885-.255 1.326-.086.451-.176.899-.257 1.352-.082.457-.153.918-.228 1.377-.073.441-.15.881-.217 1.323-.073.478-.136.96-.202 1.44-.06.428-.124.853-.178 1.281-.062.491-.114.984-.169 1.477-.048.424-.101.846-.144 1.27-.051.501-.09 1.005-.134 1.507-.037.419-.079.837-.111 1.258-.042.552-.072 1.107-.106 1.662-.022.373-.051.744-.07 1.117-.032.633-.052 1.27-.073 1.904-.01.301-.026.599-.034.899a114.82 114.82 0 00-.036 2.819c0 1.362.034 2.717.083 4.067a109.457 109.457 0 00.275 4.786c.017.213.038.424.057.636.106 1.233.231 2.46.378 3.681.022.184.04.367.063.551.162 1.293.35 2.576.556 3.854.02.155.037.308.062.459zm108.524 71.968c-42.39 0-78.024-29.46-87.516-68.98-.094-.393-.188-.786-.276-1.181a89.19 89.19 0 01-.302-1.382 91.625 91.625 0 01-.591-3.107 85.964 85.964 0 01-.742-5.225c-.027-.238-.057-.477-.082-.716a89.376 89.376 0 01-.247-2.789c-.017-.229-.029-.46-.044-.689a93.514 93.514 0 01-.119-2.249c-.011-.271-.022-.54-.031-.81a91.535 91.535 0 01-.051-2.872c0-4.652.355-9.224 1.039-13.688 6.612-43.153 43.987-76.313 88.961-76.313a89.583 89.583 0 013.87.088 89.32 89.32 0 013.27.194c46.3 3.651 82.859 42.494 82.859 89.717.001 49.629-40.373 90.002-89.998 90.002z"/><path d="M445.16 411.995c5.523 0 10-4.478 10-10 0-5.523-4.477-10-10-10h-10.863v-6.627l15.863-9.158c4.783-2.761 6.422-8.877 3.66-13.66-2.761-4.783-8.878-6.422-13.66-3.66l-9.643 5.566c-5.436-10.197-16.176-17.157-28.517-17.157-12.34 0-23.081 6.96-28.517 17.157l-9.642-5.566c-4.782-2.76-10.898-1.122-13.66 3.66-2.762 4.783-1.123 10.898 3.66 13.66l15.862 9.158v6.627h-10.862c-5.523 0-10 4.477-10 10 0 5.522 4.477 10 10 10h10.862v6.627l-15.862 9.158c-4.783 2.762-6.422 8.877-3.66 13.66a9.995 9.995 0 0013.66 3.66l9.642-5.566c5.435 10.197 16.177 17.157 28.518 17.157 12.34 0 23.08-6.96 28.516-17.157l9.642 5.566a9.995 9.995 0 0013.66-3.66c2.762-4.783 1.123-10.899-3.66-13.66l-15.863-9.158v-6.627h10.864zm-30.863 12.4c0 6.78-5.516 12.296-12.295 12.296h-.001c-6.78 0-12.296-5.516-12.296-12.296v-44.801c0-6.78 5.517-12.296 12.297-12.296 6.779 0 12.295 5.516 12.295 12.296v44.801z"/></svg>