<?xml version="1.0"?>
<svg xmlns="http://www.w3.org/2000/svg" id="_x31__x2C_5" enable-background="new 0 0 24 24" height="512px" viewBox="0 0 24 24" width="512px" class=""><g><g><path d="m8.5 1.05v9h-7.65v-5.85c0-.189.117-.36.288-.423l7.2-2.7c.054-.018.108-.027.162-.027z" fill="#78909c" data-original="#78909C" class="active-path" style="fill:#2D9888" data-old_color="#78909c"/></g><g><path d="m16.15 4.2v5.85h-7.65v-9c.054 0 .108.009.162.027l7.2 2.7c.171.063.288.234.288.423z" fill="#cfd8dc" data-original="#CFD8DC" class="" style="fill:#44C7B6" data-old_color="#cfd8dc"/></g><g><path d="m16.15 10.05c-.036 8.154-7.479 9.873-7.551 9.891-.036.009-.063.009-.099.009v-9.9z" fill="#78909c" data-original="#78909C" class="active-path" style="fill:#2D9888" data-old_color="#78909c"/></g><g><path d="m8.5 10.05v9.9c-.036 0-.063 0-.099-.009-.072-.018-7.515-1.737-7.551-9.891z" fill="#cfd8dc" data-original="#CFD8DC" class="" style="fill:#44C7B6" data-old_color="#cfd8dc"/></g><g><path d="m23 16.314v6.359c0 .347-.288.635-.635.635h-9.731c-.347 0-.635-.288-.635-.635v-6.359l1.269.795 3.892 2.462c.102.068.22.102.338.102s.237-.034.338-.102l3.892-2.454z" fill="#2196f3" data-original="#2196F3" class="" style="fill:#5FCDFF" data-old_color="#2196f3"/></g><g><path d="m23 16.327v-.013l-1.269.804-3.892 2.454c-.102.068-.22.102-.338.102s-.237-.034-.338-.102l-3.892-2.462-1.271-.796v.013c0-.347.288-.635.635-.635h9.731c.346 0 .634.288.634.635z" fill="#64b5f6" data-original="#64B5F6" class="" style="fill:#30B6FF" data-old_color="#64b5f6"/></g><g><path d="m22.25 24h-9.5c-.965 0-1.75-.785-1.75-1.75v-5.5c0-.965.785-1.75 1.75-1.75h9.5c.965 0 1.75.785 1.75 1.75v5.5c0 .965-.785 1.75-1.75 1.75zm-9.5-7.5c-.138 0-.25.112-.25.25v5.5c0 .138.112.25.25.25h9.5c.138 0 .25-.112.25-.25v-5.5c0-.138-.112-.25-.25-.25z" data-original="#000000" class="" style="fill:#000000"/></g><g><path d="m17.5 20c-.139 0-.278-.039-.4-.116l-5.29-3.34c-.35-.221-.455-.684-.234-1.034.222-.35.684-.456 1.035-.233l4.89 3.087 4.89-3.087c.35-.223.813-.116 1.035.233.221.351.116.813-.234 1.034l-5.29 3.34c-.124.077-.263.116-.402.116z" data-original="#000000" class="" style="fill:#000000"/></g><g><path d="m8.25 20.94c-.064 0-.128-.008-.193-.025-1.345-.357-8.057-2.566-8.057-10.985v-6.18c0-.31.19-.587.479-.699l7.75-3c.174-.067.367-.067.541 0l7.75 3c.29.112.48.389.48.699v6.18c0 .861-.071 1.688-.212 2.455-.075.407-.469.674-.873.603-.408-.075-.677-.466-.603-.873.125-.679.188-1.414.188-2.185v-5.666l-7-2.709-7 2.709v5.666c0 7.136 5.314 9.103 6.942 9.536.4.106.639.517.533.917-.089.336-.393.557-.725.557z" data-original="#000000" class="" style="fill:#000000"/></g></g> </svg>
